<svg height="77" viewBox="0 0 1367.47 306.77" width="345" xmlns="http://www.w3.org/2000/svg"><path d="m281.51 47.21-135.71-46.69a9.88 9.88 0 0 0 -6.43 0l-132.81 46.71a9.77 9.77 0 0 0 -6.5 10.29l18.7 176.93a9.82 9.82 0 0 0 5 7.56l115.55 63.55a9.81 9.81 0 0 0 9.54-.05l112.68-63.56a9.85 9.85 0 0 0 4.91-7.35l21.56-176.93a9.86 9.86 0 0 0 -6.49-10.46z" fill="#3ac"/><path d="m486.07 147.93a85.48 85.48 0 0 1 -5.79 31.92 71.67 71.67 0 0 1 -41.54 41.32 89 89 0 0 1 -32.79 5.83h-60.24v-158.1h60.23a88.33 88.33 0 0 1 32.79 5.85 74 74 0 0 1 25.27 16.25 72.76 72.76 0 0 1 16.29 25 85.49 85.49 0 0 1 5.78 31.93zm-30.17 0a73.61 73.61 0 0 0 -3.44-23.34 48.4 48.4 0 0 0 -9.95-17.49 43.45 43.45 0 0 0 -15.74-11 54 54 0 0 0 -20.82-3.83h-30.72v111.3h30.72a54 54 0 0 0 20.82-3.83 43.39 43.39 0 0 0 15.74-11 48.37 48.37 0 0 0 9.95-17.49 73.6 73.6 0 0 0 3.44-23.32zm49.46-17.49q19.35-17.71 46.57-17.71a45.54 45.54 0 0 1 17.6 3.22 37.21 37.21 0 0 1 13.12 9 38.4 38.4 0 0 1 8.14 13.72 52.72 52.72 0 0 1 2.79 17.49v70.84h-12.25a12.38 12.38 0 0 1 -5.9-1.15q-2.08-1.15-3.28-4.65l-2.4-8.09a97.29 97.29 0 0 1 -8.31 6.72 48.91 48.91 0 0 1 -8.42 4.86 45.32 45.32 0 0 1 -9.35 3 53.93 53.93 0 0 1 -11 1 43.08 43.08 0 0 1 -13.12-1.91 28.78 28.78 0 0 1 -10.38-5.74 25.73 25.73 0 0 1 -6.78-9.51 33.72 33.72 0 0 1 -2.4-13.23 26.32 26.32 0 0 1 1.42-8.47 24.76 24.76 0 0 1 4.65-8 38.63 38.63 0 0 1 8.36-7.21 54.43 54.43 0 0 1 12.63-5.9 109.08 109.08 0 0 1 17.44-4.1 174.35 174.35 0 0 1 22.74-1.91v-6.56q0-11.26-4.81-16.67t-13.88-5.41a33 33 0 0 0 -10.88 1.53 44.91 44.91 0 0 0 -7.6 3.44q-3.28 1.91-6 3.44a11.78 11.78 0 0 1 -6 1.53 7.79 7.79 0 0 1 -4.81-1.48 12.33 12.33 0 0 1 -3.17-3.44zm61.87 48.64a149.08 149.08 0 0 0 -19.68 2 52.42 52.42 0 0 0 -12.79 3.77 16.8 16.8 0 0 0 -6.89 5.36 11.63 11.63 0 0 0 -2.08 6.67q0 7.11 4.21 10.17t11 3.06a32 32 0 0 0 14.37-3 42.69 42.69 0 0 0 11.86-9.11zm90.56 49.64q-14.65 0-22.46-8.25t-7.82-22.79v-62.68h-11.51a5.26 5.26 0 0 1 -3.72-1.42 5.53 5.53 0 0 1 -1.53-4.26v-10.68l18-3 5.68-30.61a6 6 0 0 1 2.08-3.39 6.18 6.18 0 0 1 3.94-1.2h14v35.36h30v19.2h-30v60.78q0 5.25 2.57 8.2a8.85 8.85 0 0 0 7 3 12.7 12.7 0 0 0 4.21-.6 23 23 0 0 0 3-1.26q1.26-.66 2.24-1.26a3.75 3.75 0 0 1 2-.6 3.1 3.1 0 0 1 2 .6 9.23 9.23 0 0 1 1.64 1.8l8.09 13.12a40.87 40.87 0 0 1 -13.55 7.43 50.47 50.47 0 0 1 -15.86 2.51zm44.32-98.28q19.35-17.71 46.57-17.71a45.54 45.54 0 0 1 17.6 3.22 37.19 37.19 0 0 1 13.12 9 38.37 38.37 0 0 1 8.14 13.72 52.72 52.72 0 0 1 2.79 17.49v70.84h-12.25a12.37 12.37 0 0 1 -5.9-1.15q-2.08-1.15-3.28-4.65l-2.4-8.09a97.21 97.21 0 0 1 -8.31 6.72 49 49 0 0 1 -8.42 4.86 45.33 45.33 0 0 1 -9.35 3 53.92 53.92 0 0 1 -11 1 43.08 43.08 0 0 1 -13.12-1.91 28.78 28.78 0 0 1 -10.38-5.74 25.74 25.74 0 0 1 -6.78-9.51 33.72 33.72 0 0 1 -2.4-13.23 26.31 26.31 0 0 1 1.42-8.47 24.76 24.76 0 0 1 4.65-8 38.66 38.66 0 0 1 8.36-7.21 54.45 54.45 0 0 1 12.63-5.9 109.07 109.07 0 0 1 17.44-4.1 174.32 174.32 0 0 1 22.76-1.93v-6.56q0-11.26-4.81-16.67t-13.88-5.41a33 33 0 0 0 -10.88 1.53 44.89 44.89 0 0 0 -7.6 3.44q-3.28 1.91-6 3.44a11.79 11.79 0 0 1 -6 1.53 7.79 7.79 0 0 1 -4.81-1.48 12.33 12.33 0 0 1 -3.17-3.44zm61.89 48.65a149.06 149.06 0 0 0 -19.68 2 52.43 52.43 0 0 0 -12.79 3.77 16.81 16.81 0 0 0 -6.89 5.36 11.63 11.63 0 0 0 -2.08 6.67q0 7.11 4.21 10.17t11 3.06a32 32 0 0 0 14.37-3 42.68 42.68 0 0 0 11.86-9.12zm165.42 10.6a5.87 5.87 0 0 1 4.26 1.86l11.59 12.57a63.64 63.64 0 0 1 -23.67 18.26q-14 6.34-33.72 6.34-17.6 0-31.65-6a69.71 69.71 0 0 1 -24-16.73 73.19 73.19 0 0 1 -15.23-25.59 96 96 0 0 1 -5.3-32.47 90.36 90.36 0 0 1 5.68-32.63 75 75 0 0 1 16-25.52 72.5 72.5 0 0 1 24.62-16.67 81.77 81.77 0 0 1 31.7-6q17.27 0 30.66 5.68a73.08 73.08 0 0 1 22.83 14.91l-9.84 13.66a9 9 0 0 1 -2.24 2.29 6.35 6.35 0 0 1 -3.77 1 7.2 7.2 0 0 1 -3.39-.93q-1.75-.93-3.83-2.29t-4.81-3a39.67 39.67 0 0 0 -6.34-3 51.92 51.92 0 0 0 -8.36-2.29 57.87 57.87 0 0 0 -11-.93 48.74 48.74 0 0 0 -19.38 3.79 42.16 42.16 0 0 0 -15.14 10.93 50.38 50.38 0 0 0 -9.84 17.49 73.27 73.27 0 0 0 -3.5 23.56 69.25 69.25 0 0 0 3.77 23.72 52.12 52.12 0 0 0 10.22 17.49 43.61 43.61 0 0 0 15.2 10.81 47 47 0 0 0 18.8 3.77 81.89 81.89 0 0 0 10.88-.66 46.17 46.17 0 0 0 9-2.08 39.7 39.7 0 0 0 7.76-3.66 48.48 48.48 0 0 0 7.27-5.52 10.31 10.31 0 0 1 2.29-1.58 5.56 5.56 0 0 1 2.48-.58zm32.18-59.25q19.35-17.71 46.57-17.71a45.54 45.54 0 0 1 17.6 3.22 37.19 37.19 0 0 1 13.12 9 38.37 38.37 0 0 1 8.14 13.72 52.72 52.72 0 0 1 2.79 17.49v70.84h-12.24a12.37 12.37 0 0 1 -5.9-1.15q-2.08-1.15-3.28-4.65l-2.4-8.09a97.21 97.21 0 0 1 -8.31 6.72 49 49 0 0 1 -8.42 4.86 45.33 45.33 0 0 1 -9.35 3 53.92 53.92 0 0 1 -11 1 43.08 43.08 0 0 1 -13.12-1.91 28.78 28.78 0 0 1 -10.38-5.74 25.74 25.74 0 0 1 -6.78-9.51 33.73 33.73 0 0 1 -2.4-13.23 26.31 26.31 0 0 1 1.42-8.47 24.76 24.76 0 0 1 4.65-8 38.66 38.66 0 0 1 8.36-7.21 54.45 54.45 0 0 1 12.63-5.9 109.07 109.07 0 0 1 17.44-4.1 174.32 174.32 0 0 1 22.74-1.91v-6.56q0-11.26-4.81-16.67t-13.88-5.41a33 33 0 0 0 -10.88 1.53 44.89 44.89 0 0 0 -7.6 3.44q-3.28 1.91-6 3.44a11.79 11.79 0 0 1 -6 1.53 7.79 7.79 0 0 1 -4.81-1.48 12.33 12.33 0 0 1 -3.17-3.44zm61.87 48.64a149.06 149.06 0 0 0 -19.68 2 52.43 52.43 0 0 0 -12.79 3.8 16.81 16.81 0 0 0 -6.89 5.36 11.63 11.63 0 0 0 -2.08 6.67q0 7.11 4.21 10.17t11 3.06a32 32 0 0 0 14.37-3 42.68 42.68 0 0 0 11.86-9.13zm54.71 47.92v-112.19h16.51a6.63 6.63 0 0 1 6.89 4.92l1.75 8.31a63.83 63.83 0 0 1 6.18-6 39.66 39.66 0 0 1 6.89-4.7 37.29 37.29 0 0 1 7.87-3.12 35.05 35.05 0 0 1 9.24-1.15q10.6 0 17.43 5.74a34.56 34.56 0 0 1 10.22 15.25 34.23 34.23 0 0 1 6.56-9.57 35.9 35.9 0 0 1 8.63-6.5 39.77 39.77 0 0 1 10-3.72 48.07 48.07 0 0 1 10.66-1.2 44.82 44.82 0 0 1 16.51 2.84 31.69 31.69 0 0 1 12.13 8.31 36.63 36.63 0 0 1 7.49 13.34 58.1 58.1 0 0 1 2.57 18v71.44h-27v-71.41q0-10.71-4.7-16.12t-13.77-5.41a20.57 20.57 0 0 0 -7.71 1.42 18.37 18.37 0 0 0 -6.23 4.1 18.73 18.73 0 0 0 -4.21 6.72 26.13 26.13 0 0 0 -1.53 9.29v71.41h-27.11v-71.41q0-11.26-4.54-16.4t-13.28-5.14a21.83 21.83 0 0 0 -11 2.9 36.66 36.66 0 0 0 -9.46 7.92v82.13zm211.67-96.88a58.51 58.51 0 0 1 15.63-12.57q8.74-4.81 20.55-4.81a36.79 36.79 0 0 1 16.78 3.83 37.68 37.68 0 0 1 13.12 11.09 53.26 53.26 0 0 1 8.53 17.93 90.21 90.21 0 0 1 3 24.43 76.84 76.84 0 0 1 -3.39 23.28 57 57 0 0 1 -9.67 18.58 44.72 44.72 0 0 1 -15.19 12.3 44.22 44.22 0 0 1 -19.95 4.43 40.23 40.23 0 0 1 -16.07-2.9 39.23 39.23 0 0 1 -11.92-8v45.91h-27v-148.81h16.51a6.63 6.63 0 0 1 6.89 4.92zm1.42 67.77a26.57 26.57 0 0 0 10 7.87 29.76 29.76 0 0 0 11.75 2.3 25.79 25.79 0 0 0 11-2.3 21.63 21.63 0 0 0 8.36-7 34.62 34.62 0 0 0 5.3-11.86 67.79 67.79 0 0 0 1.86-16.89 75 75 0 0 0 -1.58-16.67 32.22 32.22 0 0 0 -4.54-11.09 17.92 17.92 0 0 0 -7.16-6.23 22.34 22.34 0 0 0 -9.57-2 27.28 27.28 0 0 0 -14.32 3.55 43.46 43.46 0 0 0 -11.15 10z" fill="#3d4251"/><g fill="#fff"><path d="m205.66 130.43c2.82-11.64 2.47-22.58-3.88-37.88 0 0 10.23 4 9.17-3.9s-12.34-16.17-20.8-21.44c-3.72-2.32-13.81-7.27-27.33-10.28l2.52-5.7-.7-.34c-21-10.21-45.23-1-45.48-.86l-.75.29 2.4 6.34a83.51 83.51 0 0 0 -20.39 7.59c-56.94 30.34-28.02 89.56-10.42 103.67s9.52 42.85 0 68.86h76.55c1.06-4.88.14 2.4 3.7-17s17.32-12.21 28.16-12.87 9.12-8.2 9-16.66c5.29-2.38 5.29-4.89 1.76-7.93 4.59-4.23 3.88-4.23 1.41-8.38s-.71-6.08-.71-6.08 7.4-1.44 8.46-5.31c.37-8.55-15.49-20.48-12.67-32.12zm-15.82-2.43-11.34-3.85c-.6 1.55-6.38 16-14 18.49l-7.16-9.46c-3.44 2.69-11.28 5.06-15.07 3.95v-.35h-.2l.21 26.08c-15 1.56-33-7.56-41.63-20.1l-9.41 7.14c-10.7-12.92-12.33-28.5-12.44-37.44h12.69c0-9.92 3.88-22.85 9.34-30l9.88 7c.8-1 8.27-9.92 18.26-13.15h.15l-7.12-18.92c15.09-4.34 26.17-4.28 38.23.2a4.14 4.14 0 0 1 1 .52l.19.14-2.07 5.63c.56.25 8.57 3.84 11.88 7.22l2.66-3.68s15.61 8.41 20.37 27.13l-4.15 1.45v-.1a59.23 59.23 0 0 1 -.27 32.1z"/><path d="m141.62 93.53a12.6 12.6 0 1 0 12.6 12.6 12.61 12.61 0 0 0 -12.6-12.6z"/></g></svg>